<svg width="100" height="82" viewBox="0 0 100 82" fill="none" xmlns="http://www.w3.org/2000/svg">
<rect x="0.5" y="0.5" width="99" height="81" rx="4.5" fill="white" stroke="#D9D9D9" stroke-dasharray="4 4"/>
<path fill-rule="evenodd" clip-rule="evenodd" d="M58.0521 23.3854V27.552C58.0521 27.9833 58.4021 28.3333 58.8334 28.3333C59.2646 28.3333 59.6146 27.9833 59.6146 27.552V23.3854C59.6146 22.9541 59.2646 22.6041 58.8334 22.6041C58.4021 22.6041 58.0521 22.9541 58.0521 23.3854Z" fill="#253659"/>
<path fill-rule="evenodd" clip-rule="evenodd" d="M56.75 26.25H60.9167C61.3479 26.25 61.6979 25.9 61.6979 25.4688C61.6979 25.0375 61.3479 24.6875 60.9167 24.6875H56.75C56.3188 24.6875 55.9688 25.0375 55.9688 25.4688C55.9688 25.9 56.3188 26.25 56.75 26.25Z" fill="#253659"/>
<path fill-rule="evenodd" clip-rule="evenodd" d="M52.5834 23.125H47.498C46.8073 23.125 46.1761 23.5156 45.8677 24.1323L44.8813 26.1063C44.8365 26.1938 44.7469 26.25 44.648 26.25H42.1667C40.5844 26.25 39.3021 27.5323 39.3021 29.1146V39.5313C39.3021 40.2906 39.6042 41.0198 40.1407 41.5573C40.6782 42.0938 41.4073 42.3958 42.1667 42.3958H58.8334C59.5928 42.3958 60.3219 42.0938 60.8594 41.5573C61.3959 41.0198 61.698 40.2906 61.698 39.5313C61.698 36.3573 61.698 30.6771 61.698 30.6771C61.698 30.2458 61.348 29.8958 60.9167 29.8958C60.4855 29.8958 60.1355 30.2458 60.1355 30.6771V39.5313C60.1355 39.8771 59.998 40.2073 59.7542 40.4521C59.5094 40.6958 59.1792 40.8333 58.8334 40.8333H42.1667C41.8209 40.8333 41.4907 40.6958 41.2459 40.4521C41.0021 40.2073 40.8646 39.8771 40.8646 39.5313V29.1146C40.8646 28.3958 41.448 27.8125 42.1667 27.8125H44.648C45.3386 27.8125 45.9698 27.4219 46.2782 26.8052L47.2646 24.8313C47.3094 24.7438 47.399 24.6875 47.498 24.6875H52.5834C53.0146 24.6875 53.3646 24.3375 53.3646 23.9063C53.3646 23.475 53.0146 23.125 52.5834 23.125Z" fill="#253659"/>
<path fill-rule="evenodd" clip-rule="evenodd" d="M50.5 28.8541C47.7688 28.8541 45.5521 31.0708 45.5521 33.802C45.5521 36.5333 47.7688 38.75 50.5 38.75C53.2313 38.75 55.448 36.5333 55.448 33.802C55.448 31.0708 53.2313 28.8541 50.5 28.8541ZM50.5 30.4166C52.3688 30.4166 53.8855 31.9333 53.8855 33.802C53.8855 35.6708 52.3688 37.1875 50.5 37.1875C48.6313 37.1875 47.1146 35.6708 47.1146 33.802C47.1146 31.9333 48.6313 30.4166 50.5 30.4166Z" fill="#253659"/>
<path d="M23.42 51.48H24.692L28.004 60H26.588L25.688 57.684H22.4L21.512 60H20.084L23.42 51.48ZM25.424 56.688L24.056 52.956L22.64 56.688H25.424ZM28.3179 56.868C28.3179 56.268 28.4379 55.724 28.6779 55.236C28.9259 54.74 29.2619 54.348 29.6859 54.06C30.1099 53.764 30.5979 53.616 31.1499 53.616C31.6299 53.616 32.0619 53.74 32.4459 53.988C32.8379 54.236 33.1419 54.544 33.3579 54.912V51.24H34.6779V58.512C34.6779 58.664 34.7059 58.772 34.7619 58.836C34.8179 58.9 34.9099 58.936 35.0379 58.944V60C34.7899 60.04 34.5979 60.06 34.4619 60.06C34.2139 60.06 34.0019 59.988 33.8259 59.844C33.6579 59.7 33.5699 59.528 33.5619 59.328L33.5499 58.86C33.3099 59.26 32.9859 59.572 32.5779 59.796C32.1699 60.012 31.7459 60.12 31.3059 60.12C30.8739 60.12 30.4739 60.036 30.1059 59.868C29.7459 59.7 29.4299 59.464 29.1579 59.16C28.8939 58.856 28.6859 58.508 28.5339 58.116C28.3899 57.724 28.3179 57.308 28.3179 56.868ZM33.3579 57.744V56.1C33.2699 55.844 33.1259 55.616 32.9259 55.416C32.7339 55.208 32.5139 55.044 32.2659 54.924C32.0259 54.804 31.7859 54.744 31.5459 54.744C31.2659 54.744 31.0099 54.804 30.7779 54.924C30.5539 55.044 30.3579 55.204 30.1899 55.404C30.0299 55.604 29.9059 55.832 29.8179 56.088C29.7299 56.344 29.6859 56.612 29.6859 56.892C29.6859 57.18 29.7339 57.452 29.8299 57.708C29.9259 57.956 30.0619 58.18 30.2379 58.38C30.4219 58.572 30.6299 58.724 30.8619 58.836C31.1019 58.94 31.3619 58.992 31.6419 58.992C31.8179 58.992 31.9939 58.96 32.1699 58.896C32.3539 58.832 32.5259 58.744 32.6859 58.632C32.8539 58.52 32.9939 58.388 33.1059 58.236C33.2259 58.084 33.3099 57.92 33.3579 57.744ZM35.9585 56.868C35.9585 56.268 36.0785 55.724 36.3185 55.236C36.5665 54.74 36.9025 54.348 37.3265 54.06C37.7505 53.764 38.2385 53.616 38.7905 53.616C39.2705 53.616 39.7025 53.74 40.0865 53.988C40.4785 54.236 40.7825 54.544 40.9985 54.912V51.24H42.3185V58.512C42.3185 58.664 42.3465 58.772 42.4025 58.836C42.4585 58.9 42.5505 58.936 42.6785 58.944V60C42.4305 60.04 42.2385 60.06 42.1025 60.06C41.8545 60.06 41.6425 59.988 41.4665 59.844C41.2985 59.7 41.2105 59.528 41.2025 59.328L41.1905 58.86C40.9505 59.26 40.6265 59.572 40.2185 59.796C39.8105 60.012 39.3865 60.12 38.9465 60.12C38.5145 60.12 38.1145 60.036 37.7465 59.868C37.3865 59.7 37.0705 59.464 36.7985 59.16C36.5345 58.856 36.3265 58.508 36.1745 58.116C36.0305 57.724 35.9585 57.308 35.9585 56.868ZM40.9985 57.744V56.1C40.9105 55.844 40.7665 55.616 40.5665 55.416C40.3745 55.208 40.1545 55.044 39.9065 54.924C39.6665 54.804 39.4265 54.744 39.1865 54.744C38.9065 54.744 38.6505 54.804 38.4185 54.924C38.1945 55.044 37.9985 55.204 37.8305 55.404C37.6705 55.604 37.5465 55.832 37.4585 56.088C37.3705 56.344 37.3265 56.612 37.3265 56.892C37.3265 57.18 37.3745 57.452 37.4705 57.708C37.5665 57.956 37.7025 58.18 37.8785 58.38C38.0625 58.572 38.2705 58.724 38.5025 58.836C38.7425 58.94 39.0025 58.992 39.2825 58.992C39.4585 58.992 39.6345 58.96 39.8105 58.896C39.9945 58.832 40.1665 58.744 40.3265 58.632C40.4945 58.52 40.6345 58.388 40.7465 58.236C40.8665 58.084 40.9505 57.92 40.9985 57.744ZM50.524 60.12C50.02 60.12 49.576 60 49.192 59.76C48.808 59.52 48.504 59.208 48.28 58.824V62.556H46.96V53.724H48.124V54.852C48.364 54.476 48.676 54.176 49.06 53.952C49.444 53.728 49.872 53.616 50.344 53.616C50.776 53.616 51.172 53.704 51.532 53.88C51.892 54.048 52.204 54.284 52.468 54.588C52.732 54.892 52.936 55.24 53.08 55.632C53.232 56.016 53.308 56.424 53.308 56.856C53.308 57.456 53.188 58.004 52.948 58.5C52.716 58.996 52.388 59.392 51.964 59.688C51.548 59.976 51.068 60.12 50.524 60.12ZM50.092 58.992C50.372 58.992 50.624 58.932 50.848 58.812C51.08 58.692 51.276 58.532 51.436 58.332C51.604 58.132 51.732 57.904 51.82 57.648C51.908 57.392 51.952 57.128 51.952 56.856C51.952 56.568 51.904 56.296 51.808 56.04C51.712 55.784 51.572 55.56 51.388 55.368C51.212 55.176 51.004 55.024 50.764 54.912C50.532 54.8 50.276 54.744 49.996 54.744C49.828 54.744 49.652 54.776 49.468 54.84C49.284 54.904 49.112 54.992 48.952 55.104C48.792 55.216 48.652 55.348 48.532 55.5C48.412 55.652 48.328 55.812 48.28 55.98V57.624C48.392 57.88 48.54 58.112 48.724 58.32C48.908 58.52 49.12 58.684 49.36 58.812C49.6 58.932 49.844 58.992 50.092 58.992ZM60.1231 60H58.8031V56.484C58.8031 55.916 58.6991 55.492 58.4911 55.212C58.2831 54.932 57.9911 54.792 57.6151 54.792C57.3831 54.792 57.1431 54.856 56.8951 54.984C56.6471 55.112 56.4271 55.288 56.2351 55.512C56.0431 55.728 55.9031 55.98 55.8151 56.268V60H54.4951V51.24H55.8151V54.984C56.0551 54.56 56.3831 54.228 56.7991 53.988C57.2151 53.74 57.6631 53.616 58.1431 53.616C58.5351 53.616 58.8591 53.684 59.1151 53.82C59.3711 53.956 59.5711 54.144 59.7151 54.384C59.8671 54.616 59.9711 54.888 60.0271 55.2C60.0911 55.504 60.1231 55.828 60.1231 56.172V60ZM64.4753 60.12C63.9793 60.12 63.5353 60.036 63.1433 59.868C62.7513 59.692 62.4113 59.452 62.1233 59.148C61.8433 58.844 61.6273 58.5 61.4753 58.116C61.3233 57.724 61.2473 57.308 61.2473 56.868C61.2473 56.428 61.3233 56.012 61.4753 55.62C61.6273 55.228 61.8433 54.884 62.1233 54.588C62.4113 54.284 62.7513 54.048 63.1433 53.88C63.5433 53.704 63.9873 53.616 64.4753 53.616C64.9633 53.616 65.4033 53.704 65.7953 53.88C66.1953 54.048 66.5353 54.284 66.8153 54.588C67.1033 54.884 67.3233 55.228 67.4753 55.62C67.6273 56.012 67.7033 56.428 67.7033 56.868C67.7033 57.308 67.6273 57.724 67.4753 58.116C67.3233 58.5 67.1033 58.844 66.8153 59.148C66.5353 59.452 66.1953 59.692 65.7953 59.868C65.4033 60.036 64.9633 60.12 64.4753 60.12ZM62.6033 56.88C62.6033 57.28 62.6873 57.64 62.8553 57.96C63.0233 58.28 63.2473 58.532 63.5273 58.716C63.8073 58.9 64.1233 58.992 64.4753 58.992C64.8193 58.992 65.1313 58.9 65.4113 58.716C65.6993 58.524 65.9273 58.268 66.0953 57.948C66.2633 57.62 66.3473 57.26 66.3473 56.868C66.3473 56.468 66.2633 56.108 66.0953 55.788C65.9273 55.468 65.6993 55.216 65.4113 55.032C65.1313 54.84 64.8193 54.744 64.4753 54.744C64.1233 54.744 63.8073 54.84 63.5273 55.032C63.2473 55.224 63.0233 55.48 62.8553 55.8C62.6873 56.112 62.6033 56.472 62.6033 56.88ZM72.2723 59.676C72.1603 59.732 72.0203 59.792 71.8523 59.856C71.6843 59.92 71.4923 59.976 71.2763 60.024C71.0683 60.072 70.8523 60.096 70.6283 60.096C70.3563 60.096 70.1043 60.048 69.8723 59.952C69.6403 59.856 69.4523 59.704 69.3083 59.496C69.1723 59.28 69.1043 59.004 69.1043 58.668V54.744H68.2763V53.724H69.1043V51.66H70.4243V53.724H71.7923V54.744H70.4243V58.248C70.4403 58.464 70.5083 58.624 70.6283 58.728C70.7563 58.832 70.9123 58.884 71.0963 58.884C71.2803 58.884 71.4563 58.852 71.6243 58.788C71.7923 58.724 71.9163 58.672 71.9963 58.632L72.2723 59.676ZM75.9245 60.12C75.4285 60.12 74.9845 60.036 74.5925 59.868C74.2005 59.692 73.8605 59.452 73.5725 59.148C73.2925 58.844 73.0765 58.5 72.9245 58.116C72.7725 57.724 72.6965 57.308 72.6965 56.868C72.6965 56.428 72.7725 56.012 72.9245 55.62C73.0765 55.228 73.2925 54.884 73.5725 54.588C73.8605 54.284 74.2005 54.048 74.5925 53.88C74.9925 53.704 75.4365 53.616 75.9245 53.616C76.4125 53.616 76.8525 53.704 77.2445 53.88C77.6445 54.048 77.9845 54.284 78.2645 54.588C78.5525 54.884 78.7725 55.228 78.9245 55.62C79.0765 56.012 79.1525 56.428 79.1525 56.868C79.1525 57.308 79.0765 57.724 78.9245 58.116C78.7725 58.5 78.5525 58.844 78.2645 59.148C77.9845 59.452 77.6445 59.692 77.2445 59.868C76.8525 60.036 76.4125 60.12 75.9245 60.12ZM74.0525 56.88C74.0525 57.28 74.1365 57.64 74.3045 57.96C74.4725 58.28 74.6965 58.532 74.9765 58.716C75.2565 58.9 75.5725 58.992 75.9245 58.992C76.2685 58.992 76.5805 58.9 76.8605 58.716C77.1485 58.524 77.3765 58.268 77.5445 57.948C77.7125 57.62 77.7965 57.26 77.7965 56.868C77.7965 56.468 77.7125 56.108 77.5445 55.788C77.3765 55.468 77.1485 55.216 76.8605 55.032C76.5805 54.84 76.2685 54.744 75.9245 54.744C75.5725 54.744 75.2565 54.84 74.9765 55.032C74.6965 55.224 74.4725 55.48 74.3045 55.8C74.1365 56.112 74.0525 56.472 74.0525 56.88Z" fill="#333333"/>
</svg>
