<svg width="16" height="19" viewBox="0 0 16 19" fill="none" xmlns="http://www.w3.org/2000/svg">
<path d="M12.9219 10.0078C12.9219 10.0859 12.8047 12.3906 15.3438 13.6016C14.875 15.0469 13.2344 18.25 11.3203 18.25C10.2266 18.25 9.60156 17.5469 8.35156 17.5469C7.0625 17.5469 6.35938 18.25 5.38281 18.25C3.50781 18.3281 1.71094 14.8125 1.20312 13.3672C0.8125 12.2734 0.65625 11.2188 0.65625 10.2031C0.65625 6.72656 2.96094 5.04688 5.14844 5.00781C6.20312 5.00781 7.53125 5.75 8.11719 5.75C8.66406 5.75 10.1875 4.85156 11.5938 4.96875C13.0391 5.08594 14.1328 5.63281 14.875 6.6875C13.5859 7.50781 12.9219 8.5625 12.9219 10.0078ZM10.7344 3.60156C9.95312 4.5 9.01562 5.00781 8 4.92969C7.92188 3.875 8.3125 2.89844 9.01562 2.11719C9.64062 1.41406 10.7344 0.828125 11.6719 0.75C11.6719 1.17969 11.7891 2.35156 10.7344 3.60156Z" fill="#333333"/>
</svg>
