<svg width="100" height="100" viewBox="0 0 100 100" fill="none" xmlns="http://www.w3.org/2000/svg">
<mask id="mask0_82_5062" style="mask-type:luminance" maskUnits="userSpaceOnUse" x="0" y="0" width="100" height="100">
<path d="M0 7.62939e-06H100V100H0V7.62939e-06Z" fill="white"/>
</mask>
<g mask="url(#mask0_82_5062)">
<path d="M78.2972 59.1912C99.9999 51.9812 84.4384 42.742 83.0078 36.5234C81.5771 30.3049 85.5412 27.6254 83.0078 22.6562C76.263 9.11208 61.5394 29.9332 61.966 11.6785C61.0511 7.96834 55.7138 4.66131 51.9531 3.90623C39.5533 1.41638 40.625 14.4531 40.625 14.4531C40.625 14.4531 38.2812 23.6328 28.9414 14.909C21.425 7.88865 9.49449 22.9812 14.4584 31.2008C19.7535 36.5486 20.7025 37.9597 12.7951 40.2451C-4.81469 44.5508 0.983552 60.4248 16.8318 60.7662C18.8826 69.9607 4.80934 81.3779 22.0703 81.0547C25.0244 80.4873 29.3984 74.8009 32.6171 75C51.5625 76.1718 40.4185 90.816 47.7769 93.3115C57.1238 97.1363 59.4584 86.4461 62.932 80.8275C68.8103 84.6599 76.4517 80.7883 78.4271 74.4672C82.2683 69.5125 72.4668 61.1281 78.2972 59.1912Z" fill="#00DCB4"/>
<path d="M15.3856 24.425C15.0053 28.6758 21.599 30.9166 19.5379 37.2321C18.877 39.1686 17.2922 40.8069 15.2301 41.2289C12.2885 41.2428 9.16603 41.8639 6.93244 43.794C3.50138 46.7006 3.65295 51.678 6.31037 55.0657C8.07541 57.3864 10.7701 58.9274 13.5955 59.6088C14.4395 59.8284 15.0319 59.8645 15.9539 60.0725C16.4567 60.1934 16.9584 60.3715 17.4156 60.6178C22.324 63.46 17.818 69.8895 15.8871 73.2854C15.769 73.5018 15.4672 73.9752 15.375 74.2067C14.1483 76.9762 16.9942 79.8592 18.9506 81.7041C19.2803 82.0215 19.7336 82.3787 20.0789 82.6823C20.91 83.4698 21.9817 84.0137 23.1137 84.1633C25.5317 84.5075 28.0668 83.1262 29.4152 81.1217C30.8695 79.3996 33.1986 78.5629 35.3811 78.6911C38.0699 78.8241 40.7625 80.3018 42.011 82.792C42.6166 84.0272 42.9004 85.6578 42.9967 86.9047C43.1246 88.2012 43.1229 89.4506 43.4969 90.5159L43.3977 90.2594C44.1705 91.8203 45.4889 92.7334 47.2041 93.2112C49.3557 93.783 51.8178 93.6952 54.0188 93.1678C55.4301 92.8881 56.1115 92.2129 56.6275 90.844C57.4596 88.5637 57.6201 85.8506 58.7027 83.335C59.1072 82.6801 59.551 82.0549 60.2561 81.4586C64.1406 78.2287 68.6672 81.451 72.19 83.4168C73.6018 84.1928 75.0736 84.9842 76.5771 85.1692C77.9598 85.3711 79.1789 84.7479 80.1307 83.7701C80.7643 83.0668 81.8738 83.0315 82.5396 83.71C83.1244 84.3006 83.1719 85.2215 82.6855 85.8662C81.9818 86.7989 81.1346 87.653 80.0764 88.2414C78.992 88.8559 77.6791 89.1666 76.4443 89.1608C74.1639 89.1483 72.1168 88.353 70.1641 87.4813C69.0588 87.0506 64.4387 84.426 63.6898 85.3803C63.6043 85.468 63.4777 85.6405 63.3508 85.8825L63.5412 85.4877C62.8065 87.7164 62.7617 90.2368 61.8984 92.7393C60.9926 95.5924 58.882 97.827 55.924 98.619C49.4787 100.529 41.0162 99.3713 38.0279 92.4961C37.4133 90.7506 37.3729 88.9489 37.2559 87.3147C37.1738 86.4328 37.1307 85.8858 36.8822 85.2028C36.2576 84.1496 34.3131 83.7526 33.4051 84.6352L33.6043 84.401C29.9076 89.2881 22.6209 90.9061 17.7031 86.8479C17.4344 86.6231 17.1065 86.3299 16.8611 86.0807C16.5117 85.7455 16.084 85.3694 15.7455 85.026C12.3006 81.7141 9.04884 76.751 11.7444 71.9621C12.4879 70.6987 13.3975 69.3469 14.1033 68.0912C14.7041 67.0157 15.4065 65.6875 15.5762 64.5967C15.6022 64.3961 15.5963 64.2508 15.5916 64.1895C15.5863 64.1209 15.5955 64.1672 15.6123 64.1795C15.6244 64.1801 15.619 64.1827 15.6178 64.1821C15.6178 64.1821 15.6276 64.1741 15.6096 64.169C15.4908 64.0606 15.3158 64.0006 15.1557 63.9448L15.0819 63.9164L15.0065 63.8989C14.8971 63.8744 14.8514 63.844 14.5965 63.8053C14.1832 63.7342 13.7043 63.6403 13.2983 63.5485C9.43244 62.6606 5.73849 60.5776 3.33283 57.3188C0.976775 54.1932 -0.0335764 49.8633 1.25412 46.0717C3.15217 40.2073 9.34005 37.7139 15.0096 37.811L14.6131 37.8559C14.9512 37.7914 15.2694 37.6239 15.5793 37.3328C16.2469 36.7264 16.6274 35.5914 16.5647 34.6745L16.5547 34.4928C16.5494 34.433 16.5342 34.3776 16.526 34.3194C16.5151 34.2621 16.5106 34.2028 16.4973 34.1463L16.4485 33.9811C16.4297 33.878 16.3639 33.7368 16.3141 33.6061C16.0082 32.8565 15.5965 32.2668 15.0633 31.5207C13.4453 29.4014 11.8205 27.1145 12.0887 24.1998C12.2983 22.019 15.4572 22.1852 15.3856 24.425Z" fill="#253659"/>
<path d="M81.1763 70.4976C78.1646 67.7835 78.2191 62.5503 81.1896 59.8437C81.8105 59.2749 82.5953 58.8495 83.4064 58.6112C84.0148 58.4456 84.671 58.3398 85.287 58.2318C88.4708 57.6519 92.5701 57.7696 93.8939 54.2823C95.8966 49.5275 94.5517 44.4351 89.9003 41.9382C88.6251 41.2329 87.1425 40.7872 85.6874 40.5665L84.921 40.4696C83.4212 40.33 82.2007 39.1343 81.63 37.8468C80.6669 35.6589 80.7036 33.0062 82.1761 31.02C86.3884 26.0118 86.404 21.823 81.0201 17.7599C80.3064 17.2058 79.4552 16.6536 78.6783 16.1788C77.331 15.4755 75.9296 15.5075 74.4863 16.1841C72.7617 16.9683 71.2165 18.253 69.5333 19.3581C68.8443 19.8038 68.1515 20.2829 67.3417 20.5361C63.2003 21.9054 58.7273 18.6034 57.9288 14.4986C57.8013 13.9257 57.805 13.2273 57.7849 12.6337C57.698 10.9314 57.3519 9.12004 56.5001 7.71203C55.9124 6.74035 55.1679 6.12277 54.1564 5.78996C52.8974 5.36926 51.5447 5.11418 50.2163 5.06203C47.0831 4.91301 43.9298 5.97024 42.9519 9.03664C42.5882 10.2581 42.782 12.0509 42.639 13.562C42.5759 14.3474 42.4312 15.1073 42.1827 15.8808C41.4304 17.9335 39.8386 19.6132 37.8538 20.515C35.707 21.5316 32.9788 21.4609 30.9499 20.1435C30.0367 19.5398 29.1458 18.7017 28.2929 18.0589C27.1601 17.1954 25.8677 16.2568 24.4118 16.3907C22.9722 16.2991 21.7411 17.1802 20.6667 18.1181C20.0099 18.6948 19.3359 19.3843 18.7163 20.0571L18.0253 20.805C17.1161 21.7491 16.6425 23.0142 16.6667 24.313C16.6956 25.931 15.4076 27.2661 13.7896 27.2952C12.1345 27.3284 10.7742 25.9663 10.8074 24.3118C10.8265 21.5554 11.9777 18.7991 13.9353 16.8667C15.9501 14.8023 18.0572 12.6419 20.8353 11.5599C21.9824 11.1263 23.1972 10.9054 24.4802 10.9829L24.1253 10.9841C26.9388 10.7952 29.5132 12.2093 31.5726 13.9429C32.1958 14.4568 32.8091 14.9882 33.4019 15.4956C33.6708 15.7433 33.9767 15.9548 34.3288 16.0409C35.5988 16.3325 37.0941 15.3562 37.5245 14.1191C37.6169 13.8525 37.6896 13.406 37.7208 13.1011C37.881 11.448 37.7042 10.0247 38.1814 8.09367C39.7165 2.53625 45.0093 0.0641785 50.4536 0.449333C52.3101 0.560272 54.1202 0.948364 55.8667 1.58957C55.9974 1.64465 56.4581 1.84738 56.5999 1.91164C60.5642 3.81457 62.0158 8.43195 62.1089 12.4687L62.1189 13.3054C62.1456 14.7296 63.3308 16.07 64.6521 16.5284C65.2597 16.7148 65.8386 16.7282 66.389 16.4173C67.5837 15.7302 68.5954 14.9665 69.8251 14.1558C72.948 12.0193 76.4685 10.6568 80.173 12.462C81.3458 13.0587 82.3995 13.8407 83.4449 14.6339C86.3995 16.9101 89.0505 20.2437 89.0552 24.1808L89.0536 24.6663C89.0488 24.8304 89.0095 25.2277 89.0003 25.3876C88.9816 25.5251 88.9183 25.9489 88.8964 26.0962L88.7972 26.5575C88.4718 28.0361 87.7997 29.4677 87.0361 30.6964C86.4245 31.6825 85.7367 32.5849 85.0113 33.4329L85.0992 33.3212C84.4533 34.2286 84.5367 36.1073 85.3392 36.8644C85.3089 36.8663 86.2474 36.9903 86.2462 36.9927C90.6665 37.6767 95.0044 40.2021 97.0175 44.321C98.831 47.8593 98.6747 52.0517 97.2156 55.6292C96.7171 56.9144 95.8681 58.1939 94.7701 59.0876C91.8628 61.496 87.94 61.412 84.5195 62.295C82.6861 62.9739 82.5163 66.106 83.9537 67.2638C84.8699 68.0036 85.0126 69.3462 84.2728 70.2624C83.5079 71.2165 82.0767 71.3245 81.1763 70.4976Z" fill="#253659"/>
<path d="M29.8128 49.9181C32.271 50.9314 34.1046 52.6605 35.932 54.3866C37.5286 55.898 39.0611 57.5878 40.6972 58.9112C41.4898 59.5179 42.3562 60.2366 43.3071 60.2716C43.7718 60.2257 44.0058 60.0362 44.4532 59.6814C47.3732 57.0722 50.0962 54.3269 52.7114 51.3872C57.3818 46.1751 61.6572 40.6784 66.5454 35.5735C68.1001 34.0573 70.3835 36.1868 68.9327 37.8476C65.0157 41.9753 61.4937 46.7493 58.0003 51.2507C56.2519 53.553 54.3589 55.8587 52.6013 58.1622C51.1214 60.0442 49.6718 61.9409 48.0708 63.7321C45.3917 66.6122 41.6595 66.663 38.5177 64.5841C35.8374 62.8112 33.8866 60.2814 32.0339 57.813C30.7054 56.0153 29.4454 54.1523 27.9753 52.5757C26.8124 51.2667 28.1931 49.2923 29.8128 49.9181Z" fill="#253659"/>
</g>
</svg>
