<svg width="21" height="20" viewBox="0 0 21 20" fill="none" xmlns="http://www.w3.org/2000/svg">
<g id="Component 2" clip-path="url(#clip0_359_46994)">
<g id="Group">
<path id="Vector" d="M16.9336 17.6055C15.1992 19.0703 12.9493 20 10.5 20C6.85547 20 3.65621 17.9922 1.92188 15.0625L2.57117 12.0695L5.44922 11.5352C6.11719 13.6914 8.13277 15.2734 10.5 15.2734C11.6484 15.2734 12.7148 14.9102 13.5938 14.2656L16.3594 14.6875L16.9336 17.6055Z" fill="#59C36A"/>
<path id="Vector_2" d="M16.9336 17.6055L16.3594 14.6875L13.5938 14.2656C12.7148 14.9102 11.6484 15.2734 10.5 15.2734V20C12.9493 20 15.1992 19.0703 16.9336 17.6055Z" fill="#00A66C"/>
<g id="Connected_Home_1_">
<g id="Group_2">
<g id="Group_3">
<g id="Group_4">
<path id="Vector_3" d="M5.22656 10C5.22656 10.539 5.30859 11.0546 5.44922 11.5352L1.92188 15.0625C1.04297 13.5859 0.5 11.8515 0.5 10C0.5 8.1484 1.04297 6.41406 1.92188 4.9375L4.75285 5.42473L5.44922 8.46484C5.30859 8.94527 5.22656 9.4609 5.22656 10Z" fill="#FFDA2D"/>
</g>
</g>
</g>
</g>
<path id="Vector_4" d="M20.5 10C20.5 13.0468 19.0899 15.7773 16.9336 17.6055L13.5938 14.2656C14.2734 13.7734 14.8477 13.1171 15.2227 12.3437H10.5C10.1718 12.3437 9.91406 12.0859 9.91406 11.7578V8.24219C9.91406 7.91402 10.1718 7.65625 10.5 7.65625H19.75C20.0312 7.65625 20.2773 7.85543 20.3242 8.13668C20.4414 8.74609 20.5 9.37887 20.5 10Z" fill="#4086F4"/>
<path id="Vector_5" d="M15.2227 12.3437C14.8477 13.1171 14.2734 13.7734 13.5938 14.2656L16.9336 17.6055C19.0899 15.7773 20.5 13.0469 20.5 10C20.5 9.37887 20.4414 8.74609 20.3242 8.13668C20.2773 7.85543 20.0312 7.65625 19.75 7.65625H10.5V12.3437H15.2227Z" fill="#4175DF"/>
<path id="Vector_6" d="M17.0977 2.79293C17.1094 2.95699 17.0391 3.10937 16.9336 3.22652L14.4258 5.72262C14.2266 5.93355 13.8985 5.95699 13.6641 5.78121C12.7382 5.08984 11.6484 4.72656 10.5 4.72656C8.13277 4.72656 6.11719 6.30855 5.44922 8.46484L1.92188 4.9375C3.65621 2.00781 6.85547 0 10.5 0C12.832 0 15.1055 0.859375 16.8867 2.35934C17.0156 2.46484 17.0859 2.62887 17.0977 2.79293Z" fill="#FF641A"/>
<path id="Vector_7" d="M13.6641 5.78121C13.8984 5.95703 14.2265 5.93355 14.4257 5.72262L16.9336 3.22652C17.0391 3.10937 17.1094 2.95703 17.0976 2.79293C17.0859 2.62883 17.0156 2.46484 16.8867 2.35934C15.1055 0.859375 12.832 0 10.5 0V4.72656C11.6484 4.72656 12.7382 5.08984 13.6641 5.78121Z" fill="#F03800"/>
</g>
</g>
<defs>
<clipPath id="clip0_359_46994">
<rect width="20" height="20" fill="white" transform="translate(0.5)"/>
</clipPath>
</defs>
</svg>
