<svg width="97" height="43" viewBox="0 0 97 43" fill="none" xmlns="http://www.w3.org/2000/svg">
<path d="M21.868 9.944C21.6627 9.73867 21.2813 9.46 20.724 9.108C20.196 8.756 19.536 8.41867 18.744 8.096C17.9813 7.77333 17.1453 7.49467 16.236 7.26C15.3267 6.996 14.4027 6.864 13.464 6.864C11.8213 6.864 10.5747 7.172 9.724 7.788C8.90267 8.404 8.492 9.26933 8.492 10.384C8.492 11.2347 8.756 11.9093 9.284 12.408C9.812 12.9067 10.604 13.332 11.66 13.684C12.716 14.036 14.036 14.4173 15.62 14.828C17.6733 15.3267 19.448 15.9427 20.944 16.676C22.4693 17.38 23.628 18.3187 24.42 19.492C25.2413 20.636 25.652 22.1613 25.652 24.068C25.652 25.74 25.344 27.1773 24.728 28.38C24.112 29.5533 23.2613 30.5067 22.176 31.24C21.0907 31.9733 19.8587 32.516 18.48 32.868C17.1013 33.1907 15.6347 33.352 14.08 33.352C12.5253 33.352 10.9707 33.1907 9.416 32.868C7.86133 32.5453 6.36533 32.0907 4.928 31.504C3.49067 30.888 2.17067 30.1547 0.968 29.304L3.652 24.068C3.916 24.332 4.38533 24.684 5.06 25.124C5.73467 25.5347 6.556 25.96 7.524 26.4C8.492 26.8107 9.548 27.1627 10.692 27.456C11.836 27.7493 12.9947 27.896 14.168 27.896C15.8107 27.896 17.0573 27.6173 17.908 27.06C18.7587 26.5027 19.184 25.7107 19.184 24.684C19.184 23.7453 18.8467 23.012 18.172 22.484C17.4973 21.956 16.5587 21.5013 15.356 21.12C14.1533 20.7093 12.7307 20.2693 11.088 19.8C9.12267 19.2427 7.48 18.6267 6.16 17.952C4.84 17.248 3.85733 16.368 3.212 15.312C2.56667 14.256 2.244 12.936 2.244 11.352C2.244 9.21067 2.74267 7.42133 3.74 5.984C4.76667 4.51733 6.14533 3.41733 7.876 2.684C9.60667 1.92133 11.528 1.54 13.64 1.54C15.1067 1.54 16.4853 1.70133 17.776 2.024C19.096 2.34667 20.328 2.772 21.472 3.3C22.616 3.828 23.6427 4.4 24.552 5.016L21.868 9.944Z" fill="#00DCB4"/>
<path d="M43.4844 33.44C41.695 33.44 40.111 33.044 38.7324 32.252C37.383 31.4307 36.327 30.3307 35.5644 28.952V42.372H29.6684V9.944H34.8164V13.904C35.6964 12.5547 36.811 11.4987 38.1604 10.736C39.5097 9.944 41.0497 9.548 42.7804 9.548C44.335 9.548 45.7577 9.856 47.0484 10.472C48.3684 11.088 49.5124 11.9533 50.4804 13.068C51.4484 14.1533 52.1964 15.4147 52.7244 16.852C53.2817 18.26 53.5604 19.7853 53.5604 21.428C53.5604 23.6573 53.1204 25.6813 52.2404 27.5C51.3897 29.3187 50.2017 30.7707 48.6764 31.856C47.1804 32.912 45.4497 33.44 43.4844 33.44ZM41.5044 28.424C42.4137 28.424 43.235 28.2333 43.9684 27.852C44.7017 27.4707 45.3324 26.9573 45.8604 26.312C46.4177 25.6373 46.8284 24.8893 47.0924 24.068C47.3857 23.2173 47.5324 22.3373 47.5324 21.428C47.5324 20.46 47.371 19.5653 47.0484 18.744C46.755 17.9227 46.315 17.204 45.7284 16.588C45.1417 15.9427 44.4524 15.444 43.6604 15.092C42.8977 14.74 42.0617 14.564 41.1524 14.564C40.595 14.564 40.023 14.6667 39.4364 14.872C38.879 15.048 38.3364 15.312 37.8084 15.664C37.2804 16.016 36.811 16.4267 36.4004 16.896C36.019 17.3653 35.7404 17.8787 35.5644 18.436V23.848C35.9164 24.6987 36.3857 25.476 36.9724 26.18C37.5884 26.884 38.2924 27.4413 39.0844 27.852C39.8764 28.2333 40.683 28.424 41.5044 28.424ZM57.5551 33V9.944H63.4511V33H57.5551ZM57.5551 6.732V0.879999H63.4511V6.732H57.5551ZM68.7259 0.879999H74.6219V25.608C74.6219 26.664 74.7979 27.3827 75.1499 27.764C75.5019 28.116 75.9859 28.292 76.6019 28.292C77.0713 28.292 77.5553 28.2333 78.0539 28.116C78.5526 27.9987 78.9926 27.852 79.3739 27.676L80.1659 32.164C79.3739 32.5453 78.4499 32.8387 77.3939 33.044C76.3379 33.2493 75.3846 33.352 74.5339 33.352C72.6859 33.352 71.2486 32.868 70.2219 31.9C69.2246 30.9027 68.7259 29.4947 68.7259 27.676V0.879999ZM96.293 31.812C95.7943 32.0173 95.193 32.252 94.489 32.516C93.785 32.78 93.0223 32.9853 92.201 33.132C91.409 33.308 90.6023 33.396 89.781 33.396C88.6956 33.396 87.6983 33.2053 86.789 32.824C85.8796 32.4427 85.1463 31.8413 84.589 31.02C84.061 30.1693 83.797 29.0693 83.797 27.72V14.476H80.761V9.944H83.797V2.464H89.693V9.944H94.533V14.476H89.693V25.74C89.7223 26.532 89.9423 27.104 90.353 27.456C90.7636 27.808 91.277 27.984 91.893 27.984C92.509 27.984 93.1103 27.8813 93.697 27.676C94.2836 27.4707 94.753 27.2947 95.105 27.148L96.293 31.812Z" fill="white"/>
</svg>
